# xmcd
#
# Track frame offsets: 
#        150
#        22760
#        48027
#        74155
#        105882
#        140942
#        171148
#        204391
#        226694
#        251636
#        274487
#        298088
#
# Disc length: 4425 seconds
#
# Revision: 0
# Processed by: cddbd v1.5.2PL0 Copyright (c) Steve Scherf et al.
# Submitted via: ExactAudioCopy v1.3
#
DISCID=ad11470c
DTITLE=Chris O'Leary - 7 Minutes Late
DYEAR=2018
DGENRE=Blues
TTITLE0=What The Devil Made Me Do
TTITLE1=Your Day Will Come
TTITLE2=One More Chance At Love
TTITLE3=Second Time Around
TTITLE4=She Ain't Coming Back
TTITLE5=Circus Just Left Town
TTITLE6=7 Minutes Late
TTITLE7=Unbelievable
TTITLE8=Bones
TTITLE9=Heartbreak Waiting to Happen
TTITLE10=Driving Me Crazy
TTITLE11=Daddy's Here
EXTD=
EXTT0=
EXTT1=
EXTT2=
EXTT3=
EXTT4=
EXTT5=
EXTT6=
EXTT7=
EXTT8=
EXTT9=
EXTT10=
EXTT11=
PLAYORDER=
